<svg xmlns="http://www.w3.org/2000/svg" viewBox="0 0 800 800" width="800" height="800" fill="none">
  <rect x="100" y="20" width="600" height="760" rx="40" fill="#1a1d22"/>
  <rect x="150" y="80" width="220" height="48" rx="8" fill="#0a0c0f"/><rect x="430" y="80" width="220" height="48" rx="8" fill="#0a0c0f"/><rect x="150" y="160" width="220" height="48" rx="8" fill="#0a0c0f"/><rect x="430" y="160" width="220" height="48" rx="8" fill="#0a0c0f"/><rect x="150" y="240" width="220" height="48" rx="8" fill="#0a0c0f"/><rect x="430" y="240" width="220" height="48" rx="8" fill="#0a0c0f"/><rect x="150" y="320" width="220" height="48" rx="8" fill="#0a0c0f"/><rect x="430" y="320" width="220" height="48" rx="8" fill="#0a0c0f"/><rect x="150" y="400" width="220" height="48" rx="8" fill="#0a0c0f"/><rect x="430" y="400" width="220" height="48" rx="8" fill="#0a0c0f"/><rect x="150" y="480" width="220" height="48" rx="8" fill="#0a0c0f"/><rect x="430" y="480" width="220" height="48" rx="8" fill="#0a0c0f"/><rect x="150" y="560" width="220" height="48" rx="8" fill="#0a0c0f"/><rect x="430" y="560" width="220" height="48" rx="8" fill="#0a0c0f"/><rect x="150" y="640" width="220" height="48" rx="8" fill="#0a0c0f"/><rect x="430" y="640" width="220" height="48" rx="8" fill="#0a0c0f"/>
  <rect x="100" y="20" width="600" height="760" rx="40" fill="none" stroke="#000" stroke-width="6" opacity="0.5"/>
</svg>
