<svg xmlns="http://www.w3.org/2000/svg" viewBox="0 0 800 800" width="800" height="800" fill="none">
  <rect x="100" y="20" width="600" height="760" rx="40" fill="#1b1e1e"/>
  <line x1="280" y1="40" x2="280" y2="760" stroke="#050606" stroke-width="22"/><line x1="520" y1="40" x2="520" y2="760" stroke="#050606" stroke-width="22"/><rect x="150" y="70" width="100" height="40" rx="6" fill="#0a0d0d"/><rect x="550" y="110" width="100" height="40" rx="6" fill="#0a0d0d"/><rect x="150" y="156" width="100" height="40" rx="6" fill="#0a0d0d"/><rect x="550" y="196" width="100" height="40" rx="6" fill="#0a0d0d"/><rect x="150" y="242" width="100" height="40" rx="6" fill="#0a0d0d"/><rect x="550" y="282" width="100" height="40" rx="6" fill="#0a0d0d"/><rect x="150" y="328" width="100" height="40" rx="6" fill="#0a0d0d"/><rect x="550" y="368" width="100" height="40" rx="6" fill="#0a0d0d"/><rect x="150" y="414" width="100" height="40" rx="6" fill="#0a0d0d"/><rect x="550" y="454" width="100" height="40" rx="6" fill="#0a0d0d"/><rect x="150" y="500" width="100" height="40" rx="6" fill="#0a0d0d"/><rect x="550" y="540" width="100" height="40" rx="6" fill="#0a0d0d"/><rect x="150" y="586" width="100" height="40" rx="6" fill="#0a0d0d"/><rect x="550" y="626" width="100" height="40" rx="6" fill="#0a0d0d"/><rect x="150" y="672" width="100" height="40" rx="6" fill="#0a0d0d"/><rect x="550" y="712" width="100" height="40" rx="6" fill="#0a0d0d"/>
  <rect x="100" y="20" width="600" height="760" rx="40" fill="none" stroke="#000" stroke-width="6" opacity="0.5"/>
</svg>
