<svg xmlns="http://www.w3.org/2000/svg" viewBox="0 0 2400 1260" width="2400" height="1260" fill="none">
  <defs>
    <linearGradient id="paint" x1="0" y1="513.2" x2="0" y2="1157.2" gradientUnits="userSpaceOnUse">
      <stop offset="0" stop-color="#33333b"/>
      <stop offset="0.55" stop-color="#26262c"/>
      <stop offset="1" stop-color="#1a1a1f"/>
    </linearGradient>
  </defs>
  <circle cx="555" cy="1010" r="239.2" fill="#0a0a0c"/><path d="M 311.2 1010 A 243.8 243.8 0 0 1 798.8 1010" fill="none" stroke="#ffffff14" stroke-width="3"/>
  <circle cx="1850" cy="1010" r="239.2" fill="#0a0a0c"/><path d="M 1606.2 1010 A 243.8 243.8 0 0 1 2093.8 1010" fill="none" stroke="#ffffff14" stroke-width="3"/>
  <path d="M 164 1157.2 Q 122.6 1019.2 141 931.8 Q 150.2 821.4 242.2 803 L 624 803 Q 754.4 522.4 950 513.2 Q 1242.6 536.2 1482 821.4 Q 1804 839.8 2218 885.8 Q 2310 904.2 2300.8 1033 Q 2310 1102 2254.8 1157.2 Z" fill="url(#paint)" stroke="#ffffff1f" stroke-width="3"/>
  <path d="M 673.7 790.6 Q 802.3 554.6 950 554.6 Q 1226.7 577.6 1444.7 794.7 Z" fill="#3b3b46" opacity="0.9"/>
  <rect x="986.8" y="554.6" width="46" height="231.8" fill="url(#paint)"/>
  <line x1="279" y1="941" x2="2126" y2="941" stroke="#ffffff21" stroke-width="3"/>
  <circle cx="555" cy="1010" r="230" fill="#08080a"/><circle cx="555" cy="1010" r="163.6" fill="#3a3d44"/><circle cx="555" cy="1010" r="157.1" fill="#23252a"/><line x1="555" y1="1010" x2="555" y2="875.8" stroke="#2c2e33" stroke-width="19.6" stroke-linecap="round"/><line x1="555" y1="1010" x2="682.6" y2="968.5" stroke="#2c2e33" stroke-width="19.6" stroke-linecap="round"/><line x1="555" y1="1010" x2="633.9" y2="1118.5" stroke="#2c2e33" stroke-width="19.6" stroke-linecap="round"/><line x1="555" y1="1010" x2="476.1" y2="1118.5" stroke="#2c2e33" stroke-width="19.6" stroke-linecap="round"/><line x1="555" y1="1010" x2="427.4" y2="968.5" stroke="#2c2e33" stroke-width="19.6" stroke-linecap="round"/><circle cx="555" cy="1010" r="32.7" fill="#16171a" stroke="#4a4d54" stroke-width="3"/>
  <circle cx="1850" cy="1010" r="230" fill="#08080a"/><circle cx="1850" cy="1010" r="163.6" fill="#3a3d44"/><circle cx="1850" cy="1010" r="157.1" fill="#23252a"/><line x1="1850" y1="1010" x2="1850" y2="875.8" stroke="#2c2e33" stroke-width="19.6" stroke-linecap="round"/><line x1="1850" y1="1010" x2="1977.6" y2="968.5" stroke="#2c2e33" stroke-width="19.6" stroke-linecap="round"/><line x1="1850" y1="1010" x2="1928.9" y2="1118.5" stroke="#2c2e33" stroke-width="19.6" stroke-linecap="round"/><line x1="1850" y1="1010" x2="1771.1" y2="1118.5" stroke="#2c2e33" stroke-width="19.6" stroke-linecap="round"/><line x1="1850" y1="1010" x2="1722.4" y2="968.5" stroke="#2c2e33" stroke-width="19.6" stroke-linecap="round"/><circle cx="1850" cy="1010" r="32.7" fill="#16171a" stroke="#4a4d54" stroke-width="3"/>
  <text x="141" y="398.2" fill="#9c9b94" opacity="0.35" font-family="system-ui, sans-serif" font-size="40" letter-spacing="6">370Z Z34 · PLACEHOLDER RENDER</text>
</svg>
