<svg xmlns="http://www.w3.org/2000/svg" viewBox="0 0 2400 1260" width="2400" height="1260" fill="none">
  <defs>
    <linearGradient id="paint" x1="0" y1="398" x2="0" y2="1129" gradientUnits="userSpaceOnUse">
      <stop offset="0" stop-color="#33333b"/>
      <stop offset="0.55" stop-color="#26262c"/>
      <stop offset="1" stop-color="#1a1a1f"/>
    </linearGradient>
  </defs>
  <circle cx="645" cy="1000" r="223.6" fill="#0a0a0c"/><path d="M 417.1 1000 A 227.9 227.9 0 0 1 872.9 1000" fill="none" stroke="#ffffff14" stroke-width="3"/>
  <circle cx="1770" cy="1000" r="223.6" fill="#0a0a0c"/><path d="M 1542.1 1000 A 227.9 227.9 0 0 1 1997.9 1000" fill="none" stroke="#ffffff14" stroke-width="3"/>
  <path d="M 331.1 1129 Q 292.4 1000 309.6 896.8 Q 318.2 793.6 404.2 776.4 L 645 776.4 Q 749 406.6 905.1 398 Q 1238.9 419.5 1512 793.6 Q 1727 810.8 2049.5 853.8 Q 2135.5 871 2126.9 991.4 Q 2135.5 1077.4 2083.9 1129 Z" fill="url(#paint)" stroke="#ffffff1f" stroke-width="3"/>
  <path d="M 691.4 764.8 Q 792.9 436.7 905.1 436.7 Q 1220.7 458.2 1477.2 768.7 Z" fill="#3b3b46" opacity="0.9"/>
  <rect x="939.5" y="436.7" width="43" height="324.2" fill="url(#paint)"/>
  <line x1="438.6" y1="905.4" x2="1963.5" y2="905.4" stroke="#ffffff21" stroke-width="3"/>
  <circle cx="645" cy="1000" r="215" fill="#08080a"/><circle cx="645" cy="1000" r="145.8" fill="#3a3d44"/><circle cx="645" cy="1000" r="140" fill="#23252a"/><line x1="645" y1="1000" x2="645" y2="880.4" stroke="#2c2e33" stroke-width="17.5" stroke-linecap="round"/><line x1="645" y1="1000" x2="758.7" y2="963.1" stroke="#2c2e33" stroke-width="17.5" stroke-linecap="round"/><line x1="645" y1="1000" x2="715.3" y2="1096.7" stroke="#2c2e33" stroke-width="17.5" stroke-linecap="round"/><line x1="645" y1="1000" x2="574.7" y2="1096.7" stroke="#2c2e33" stroke-width="17.5" stroke-linecap="round"/><line x1="645" y1="1000" x2="531.3" y2="963.1" stroke="#2c2e33" stroke-width="17.5" stroke-linecap="round"/><circle cx="645" cy="1000" r="29.2" fill="#16171a" stroke="#4a4d54" stroke-width="3"/>
  <circle cx="1770" cy="1000" r="215" fill="#08080a"/><circle cx="1770" cy="1000" r="145.8" fill="#3a3d44"/><circle cx="1770" cy="1000" r="140" fill="#23252a"/><line x1="1770" y1="1000" x2="1770" y2="880.4" stroke="#2c2e33" stroke-width="17.5" stroke-linecap="round"/><line x1="1770" y1="1000" x2="1883.7" y2="963.1" stroke="#2c2e33" stroke-width="17.5" stroke-linecap="round"/><line x1="1770" y1="1000" x2="1840.3" y2="1096.7" stroke="#2c2e33" stroke-width="17.5" stroke-linecap="round"/><line x1="1770" y1="1000" x2="1699.7" y2="1096.7" stroke="#2c2e33" stroke-width="17.5" stroke-linecap="round"/><line x1="1770" y1="1000" x2="1656.3" y2="963.1" stroke="#2c2e33" stroke-width="17.5" stroke-linecap="round"/><circle cx="1770" cy="1000" r="29.2" fill="#16171a" stroke="#4a4d54" stroke-width="3"/>
  <text x="309.6" y="290.5" fill="#9c9b94" opacity="0.35" font-family="system-ui, sans-serif" font-size="40" letter-spacing="6">GOLF MK8 · PLACEHOLDER RENDER</text>
</svg>
