<svg xmlns="http://www.w3.org/2000/svg" viewBox="0 0 800 800" width="800" height="800" fill="none">
  <rect x="100" y="20" width="600" height="760" rx="40" fill="#1c1c20"/>
  <path d="M 120 70 L 400 36 L 680 70" fill="none" stroke="#040405" stroke-width="20"/><path d="M 120 140 L 400 106 L 680 140" fill="none" stroke="#040405" stroke-width="20"/><path d="M 120 210 L 400 176 L 680 210" fill="none" stroke="#040405" stroke-width="20"/><path d="M 120 280 L 400 246 L 680 280" fill="none" stroke="#040405" stroke-width="20"/><path d="M 120 350 L 400 316 L 680 350" fill="none" stroke="#040405" stroke-width="20"/><path d="M 120 420 L 400 386 L 680 420" fill="none" stroke="#040405" stroke-width="20"/><path d="M 120 490 L 400 456 L 680 490" fill="none" stroke="#040405" stroke-width="20"/><path d="M 120 560 L 400 526 L 680 560" fill="none" stroke="#040405" stroke-width="20"/><path d="M 120 630 L 400 596 L 680 630" fill="none" stroke="#040405" stroke-width="20"/>
  <rect x="100" y="20" width="600" height="760" rx="40" fill="none" stroke="#000" stroke-width="6" opacity="0.5"/>
</svg>
