<svg xmlns="http://www.w3.org/2000/svg" viewBox="0 0 800 800" width="800" height="800" fill="none">
  <defs>
    <radialGradient id="tire" cx="0.4" cy="0.36" r="0.75">
      <stop offset="0.55" stop-color="#1c1c20"/>
      <stop offset="1" stop-color="#0e0e11"/>
    </radialGradient>
    <mask id="hole">
      <circle cx="400" cy="400" r="396" fill="#fff"/>
      <circle cx="400" cy="400" r="287.7" fill="#000"/>
    </mask>
  </defs>
  <g mask="url(#hole)">
    <circle cx="400" cy="400" r="396" fill="url(#tire)"/>
    <line x1="794" y1="400" x2="770" y2="400" stroke="#050506" stroke-width="6"/><line x1="790.6" y1="451.4" x2="766.8" y2="448.3" stroke="#050506" stroke-width="6"/><line x1="780.6" y1="502" x2="757.4" y2="495.8" stroke="#050506" stroke-width="6"/><line x1="764" y1="550.8" x2="741.8" y2="541.6" stroke="#050506" stroke-width="6"/><line x1="741.2" y1="597" x2="720.4" y2="585" stroke="#050506" stroke-width="6"/><line x1="712.6" y1="639.9" x2="693.5" y2="625.2" stroke="#050506" stroke-width="6"/><line x1="678.6" y1="678.6" x2="661.6" y2="661.6" stroke="#050506" stroke-width="6"/><line x1="639.9" y1="712.6" x2="625.2" y2="693.5" stroke="#050506" stroke-width="6"/><line x1="597" y1="741.2" x2="585" y2="720.4" stroke="#050506" stroke-width="6"/><line x1="550.8" y1="764" x2="541.6" y2="741.8" stroke="#050506" stroke-width="6"/><line x1="502" y1="780.6" x2="495.8" y2="757.4" stroke="#050506" stroke-width="6"/><line x1="451.4" y1="790.6" x2="448.3" y2="766.8" stroke="#050506" stroke-width="6"/><line x1="400" y1="794" x2="400" y2="770" stroke="#050506" stroke-width="6"/><line x1="348.6" y1="790.6" x2="351.7" y2="766.8" stroke="#050506" stroke-width="6"/><line x1="298" y1="780.6" x2="304.2" y2="757.4" stroke="#050506" stroke-width="6"/><line x1="249.2" y1="764" x2="258.4" y2="741.8" stroke="#050506" stroke-width="6"/><line x1="203" y1="741.2" x2="215" y2="720.4" stroke="#050506" stroke-width="6"/><line x1="160.1" y1="712.6" x2="174.8" y2="693.5" stroke="#050506" stroke-width="6"/><line x1="121.4" y1="678.6" x2="138.4" y2="661.6" stroke="#050506" stroke-width="6"/><line x1="87.4" y1="639.9" x2="106.5" y2="625.2" stroke="#050506" stroke-width="6"/><line x1="58.8" y1="597" x2="79.6" y2="585" stroke="#050506" stroke-width="6"/><line x1="36" y1="550.8" x2="58.2" y2="541.6" stroke="#050506" stroke-width="6"/><line x1="19.4" y1="502" x2="42.6" y2="495.8" stroke="#050506" stroke-width="6"/><line x1="9.4" y1="451.4" x2="33.2" y2="448.3" stroke="#050506" stroke-width="6"/><line x1="6" y1="400" x2="30" y2="400" stroke="#050506" stroke-width="6"/><line x1="9.4" y1="348.6" x2="33.2" y2="351.7" stroke="#050506" stroke-width="6"/><line x1="19.4" y1="298" x2="42.6" y2="304.2" stroke="#050506" stroke-width="6"/><line x1="36" y1="249.2" x2="58.2" y2="258.4" stroke="#050506" stroke-width="6"/><line x1="58.8" y1="203" x2="79.6" y2="215" stroke="#050506" stroke-width="6"/><line x1="87.4" y1="160.1" x2="106.5" y2="174.8" stroke="#050506" stroke-width="6"/><line x1="121.4" y1="121.4" x2="138.4" y2="138.4" stroke="#050506" stroke-width="6"/><line x1="160.1" y1="87.4" x2="174.8" y2="106.5" stroke="#050506" stroke-width="6"/><line x1="203" y1="58.8" x2="215" y2="79.6" stroke="#050506" stroke-width="6"/><line x1="249.2" y1="36" x2="258.4" y2="58.2" stroke="#050506" stroke-width="6"/><line x1="298" y1="19.4" x2="304.2" y2="42.6" stroke="#050506" stroke-width="6"/><line x1="348.6" y1="9.4" x2="351.7" y2="33.2" stroke="#050506" stroke-width="6"/><line x1="400" y1="6" x2="400" y2="30" stroke="#050506" stroke-width="6"/><line x1="451.4" y1="9.4" x2="448.3" y2="33.2" stroke="#050506" stroke-width="6"/><line x1="502" y1="19.4" x2="495.8" y2="42.6" stroke="#050506" stroke-width="6"/><line x1="550.8" y1="36" x2="541.6" y2="58.2" stroke="#050506" stroke-width="6"/><line x1="597" y1="58.8" x2="585" y2="79.6" stroke="#050506" stroke-width="6"/><line x1="639.9" y1="87.4" x2="625.2" y2="106.5" stroke="#050506" stroke-width="6"/><line x1="678.6" y1="121.4" x2="661.6" y2="138.4" stroke="#050506" stroke-width="6"/><line x1="712.6" y1="160.1" x2="693.5" y2="174.8" stroke="#050506" stroke-width="6"/><line x1="741.2" y1="203" x2="720.4" y2="215" stroke="#050506" stroke-width="6"/><line x1="764" y1="249.2" x2="741.8" y2="258.4" stroke="#050506" stroke-width="6"/><line x1="780.6" y1="298" x2="757.4" y2="304.2" stroke="#050506" stroke-width="6"/><line x1="790.6" y1="348.6" x2="766.8" y2="351.7" stroke="#050506" stroke-width="6"/>
    <circle cx="400" cy="400" r="297.7" fill="none" stroke="#000" stroke-width="4" opacity="0.6"/>
    <text x="400" y="80.1" text-anchor="middle" fill="#7a7a82" font-family="system-ui, sans-serif" font-size="34" font-weight="700" letter-spacing="3">KINETIK</text>
    <text x="400" y="733.9" text-anchor="middle" fill="#7a7a82" font-family="system-ui, sans-serif" font-size="30" letter-spacing="2">215/40 R18</text>
  </g>
</svg>
